{
	"next_topic_id": 4,
	"topic": [
		{
			"topic_id": 1,
			"category": "film",
			"title": "- Omen-Il presagio-The Omen (1976) ITA ENG Ac3 5.1 BDRip 1080p H264 [ArMor] -",
			"torrent_imdb": "tt0075005",
			"body": "General\nUnique ID                                : 340196960123968194405757778575219463700 (0xFFEF8D1EAB55F0D67BF488E830CF9614)\nComplete name                            : Omen-Il presagio-The Omen (1976) ITA ENG Ac3 5.1 BDRip 1080p H264 [ArMor]Omen-Il presagio-The Omen (1976) ITA ENG Ac3 5.1 BDRip 1080p H264 [ArMor].mkv\nFormat                                   : Matroska\nFormat version                           : Version 4\nFile size                                : 3.00 GiB\nDuration                                 : 1 h 51 min\nOverall bit rate                         : 3 862 kb/s\nMovie name                               : CineBlog01HD\nEncoded date                             : UTC 2020-02-14 14:15:50\nWriting application                      : HandBrake 1.2.0 2018121700\nWriting library                          : Lavf58.20.100\nErrorDetectionType                       : Per level 1\n\nVideo\nID                                       : 1\nFormat                                   : AVC\nFormat/Info                              : Advanced Video Codec\nFormat profile                           : Main@L4.1\nFormat settings                          : CABAC / 4 Ref Frames\nFormat settings, CABAC                   : Yes\nFormat settings, Reference frames        : 4 frames\nCodec ID                                 : V_MPEG4/ISO/AVC\nDuration                                 : 1 h 51 min\nBit rate                                 : 3 000 kb/s\nWidth                                    : 1 920 pixels\nHeight                                   : 812 pixels\nDisplay aspect ratio                     : 2.35:1\nFrame rate mode                          : Constant\nFrame rate                               : 23.976 (24000/1001) FPS\nColor space                              : YUV\nChroma subsampling                       : 4:2:0\nBit depth                                : 8 bits\nScan type                                : Progressive\nBits/(Pixel*Frame)                       : 0.080\nStream size                              : 2.24 GiB (75%)\nWriting library                          : x264 core 157 r2935 545de2f\nEncoding settings                        : cabac=1 / ref=2 / deblock=1:0:0 / analyse=0x1:0x111 / me=hex / subme=6 / psy=1 / psy_rd=1.00:0.00 / mixed_ref=1 / me_range=16 / chroma_me=1 / trellis=1 / 8x8dct=0 / cqm=0 / deadzone=21,11 / fast_pskip=1 / chroma_qp_offset=-2 / threads=18 / lookahead_threads=3 / sliced_threads=0 / nr=0 / decimate=1 / interlaced=0 / bluray_compat=0 / constrained_intra=0 / bframes=3 / b_pyramid=2 / b_adapt=1 / b_bias=0 / direct=1 / weightb=1 / open_gop=0 / weightp=1 / keyint=240 / keyint_min=24 / scenecut=40 / intra_refresh=0 / rc_lookahead=30 / rc=abr / mbtree=1 / bitrate=3000 / ratetol=1.0 / qcomp=0.60 / qpmin=0 / qpmax=69 / qpstep=4 / vbv_maxrate=50000 / vbv_bufsize=62500 / nal_hrd=none / filler=0 / ip_ratio=1.40 / aq=1:1.00\nDefault                                  : Yes\nForced                                   : No\nColor range                              : Limited\nColor primaries                          : BT.709\nTransfer characteristics                 : BT.709\nMatrix coefficients                      : BT.709\n\nAudio #1\nID                                       : 2\nFormat                                   : AC-3\nFormat/Info                              : Audio Coding 3\nCommercial name                          : Dolby Digital\nCodec ID                                 : A_AC3\nDuration                                 : 1 h 51 min\nBit rate mode                            : Constant\nBit rate                                 : 448 kb/s\nChannel(s)                               : 6 channels\nChannel layout                           : L R C LFE Ls Rs\nSampling rate                            : 48.0 kHz\nFrame rate                               : 31.250 FPS (1536 SPF)\nCompression mode                         : Lossy\nDelay relative to video                  : -5 ms\nStream size                              : 356 MiB (12%)\nTitle                                    : Surround\nLanguage                                 : Italian\nService kind                             : Complete Main\nDefault                                  : Yes\nForced                                   : No\n\nAudio #2\nID                                       : 3\nFormat                                   : AC-3\nFormat/Info                              : Audio Coding 3\nCommercial name                          : Dolby Digital\nCodec ID                                 : A_AC3\nDuration                                 : 1 h 51 min\nBit rate mode                            : Constant\nBit rate                                 : 448 kb/s\nChannel(s)                               : 6 channels\nChannel layout                           : L R C LFE Ls Rs\nSampling rate                            : 48.0 kHz\nFrame rate                               : 31.250 FPS (1536 SPF)\nCompression mode                         : Lossy\nDelay relative to video                  : -5 ms\nStream size                              : 356 MiB (12%)\nTitle                                    : Surround\nLanguage                                 : English\nService kind                             : Complete Main\nDefault                                  : No\nForced                                   : No",
			"magnet": "magnet:?xt=urn:btih:f0c08c3fc29409cfc7805d3dc1ec41d25c515b0b&dn=Omen-Il+presagio-The+Omen+%281976%29+ITA+ENG+Ac3+5.1+BDRip+1080p+H264+%5BArMor%5D&tr=udp%3A%2F%2Ftracker.coppersurfer.tk%3A6969%2Fannounce",
			"ed2k": "",
			"torrent_file": "data/users/132WK9HBD4ACemXq8TQLspwhh5L9GKfKVQ/",
			"added": 1634293319
		},
		{
			"topic_id": 2,
			"category": "film",
			"title": "- Omen 3-Conflitto finale (1981) ITA-ENG Ac3 5.1 BDRip 1080p H264 [ArMor] -",
			"torrent_imdb": "tt0082377",
			"body": "General\nUnique ID                                : 191856608269057949656297631275724918034 (0x90563D1ABF89A122F962449158014D12)\nComplete name                            : Omen 3-Conflitto finale (1981) ITA-ENG Ac3 5.1 BDRip 1080p H264 [ArMor].mkv\nFormat                                   : Matroska\nFormat version                           : Version 4\nFile size                                : 3.10 GiB\nDuration                                 : 1 h 48 min\nOverall bit rate                         : 4 103 kb/s\nMovie name                               : CineBlog01HD\nEncoded date                             : UTC 2020-02-27 17:07:13\nWriting application                      : HandBrake 1.2.0 2018121700\nWriting library                          : Lavf58.20.100\nErrorDetectionType                       : Per level 1\n\nVideo\nID                                       : 1\nFormat                                   : AVC\nFormat/Info                              : Advanced Video Codec\nFormat profile                           : Main@L4.1\nFormat settings                          : CABAC / 4 Ref Frames\nFormat settings, CABAC                   : Yes\nFormat settings, Reference frames        : 4 frames\nCodec ID                                 : V_MPEG4/ISO/AVC\nDuration                                 : 1 h 48 min\nBit rate                                 : 3 200 kb/s\nWidth                                    : 1 920 pixels\nHeight                                   : 808 pixels\nDisplay aspect ratio                     : 2.40:1\nFrame rate mode                          : Constant\nFrame rate                               : 23.976 (24000/1001) FPS\nColor space                              : YUV\nChroma subsampling                       : 4:2:0\nBit depth                                : 8 bits\nScan type                                : Progressive\nBits/(Pixel*Frame)                       : 0.086\nStream size                              : 2.36 GiB (76%)\nWriting library                          : x264 core 157 r2935 545de2f\nEncoding settings                        : cabac=1 / ref=2 / deblock=1:0:0 / analyse=0x1:0x111 / me=hex / subme=6 / psy=1 / psy_rd=1.00:0.00 / mixed_ref=1 / me_range=16 / chroma_me=1 / trellis=1 / 8x8dct=0 / cqm=0 / deadzone=21,11 / fast_pskip=1 / chroma_qp_offset=-2 / threads=18 / lookahead_threads=3 / sliced_threads=0 / nr=0 / decimate=1 / interlaced=0 / bluray_compat=0 / constrained_intra=0 / bframes=3 / b_pyramid=2 / b_adapt=1 / b_bias=0 / direct=1 / weightb=1 / open_gop=0 / weightp=1 / keyint=240 / keyint_min=24 / scenecut=40 / intra_refresh=0 / rc_lookahead=30 / rc=abr / mbtree=1 / bitrate=3200 / ratetol=1.0 / qcomp=0.60 / qpmin=0 / qpmax=69 / qpstep=4 / vbv_maxrate=50000 / vbv_bufsize=62500 / nal_hrd=none / filler=0 / ip_ratio=1.40 / aq=1:1.00\nDefault                                  : Yes\nForced                                   : No\nColor range                              : Limited\nColor primaries                          : BT.709\nTransfer characteristics                 : BT.709\nMatrix coefficients                      : BT.709\n\nAudio #1\nID                                       : 2\nFormat                                   : AC-3\nFormat/Info                              : Audio Coding 3\nCommercial name                          : Dolby Digital\nCodec ID                                 : A_AC3\nDuration                                 : 1 h 48 min\nBit rate mode                            : Constant\nBit rate                                 : 448 kb/s\nChannel(s)                               : 6 channels\nChannel layout                           : L R C LFE Ls Rs\nSampling rate                            : 48.0 kHz\nFrame rate                               : 31.250 FPS (1536 SPF)\nCompression mode                         : Lossy\nStream size                              : 347 MiB (11%)\nTitle                                    : Surround\nLanguage                                 : Italian\nService kind                             : Complete Main\nDefault                                  : Yes\nForced                                   : No\n\nAudio #2\nID                                       : 3\nFormat                                   : AC-3\nFormat/Info                              : Audio Coding 3\nCommercial name                          : Dolby Digital\nCodec ID                                 : A_AC3\nDuration                                 : 1 h 48 min\nBit rate mode                            : Constant\nBit rate                                 : 448 kb/s\nChannel(s)                               : 6 channels\nChannel layout                           : L R C LFE Ls Rs\nSampling rate                            : 48.0 kHz\nFrame rate                               : 31.250 FPS (1536 SPF)\nCompression mode                         : Lossy\nStream size                              : 347 MiB (11%)\nTitle                                    : Surround\nLanguage                                 : English\nService kind                             : Complete Main\nDefault                                  : No\nForced                                   : No",
			"magnet": "magnet:?xt=urn:btih:aaca6fae673f573986146c77f3f658c7d024415c&dn=Omen+3-Conflitto+finale+%281981%29+ITA-ENG+Ac3+5.1+BDRip+1080p+H264+%5BArMor%5D&tr=udp%3A%2F%2Ftracker.coppersurfer.tk%3A6969%2Fannounce",
			"ed2k": "",
			"torrent_file": "data/users/132WK9HBD4ACemXq8TQLspwhh5L9GKfKVQ/",
			"added": 1634293551
		},
		{
			"topic_id": 3,
			"category": "film",
			"title": "- Omen IV-Presagio infernale-Omen IV-The Awakening (1992) ITA-ENG Ac3 2.0 WebRip 1080p H264 [ArMor] -",
			"torrent_imdb": "tt0102585",
			"body": "General\nUnique ID                                : 260869621691269974862482211628439666302 (0xC441A95E97B54B0EA98FB136202D7E7E)\nComplete name                            : Omen IV-Presagio infernale-Omen IV-The Awakening (1992) ITA-ENG Ac3 2.0 WebRip 1080p H264 [ArMor].mkv\nFormat                                   : Matroska\nFormat version                           : Version 4\nFile size                                : 2.62 GiB\nDuration                                 : 1 h 37 min\nOverall bit rate                         : 3 853 kb/s\nMovie name                               : CineBlog01HD\nEncoded date                             : UTC 2020-03-05 11:09:18\nWriting application                      : HandBrake 1.2.0 2018121700\nWriting library                          : Lavf58.20.100\nErrorDetectionType                       : Per level 1\n\nVideo\nID                                       : 1\nFormat                                   : AVC\nFormat/Info                              : Advanced Video Codec\nFormat profile                           : Main@L4.1\nFormat settings                          : CABAC / 4 Ref Frames\nFormat settings, CABAC                   : Yes\nFormat settings, Reference frames        : 4 frames\nCodec ID                                 : V_MPEG4/ISO/AVC\nDuration                                 : 1 h 37 min\nBit rate                                 : 3 500 kb/s\nWidth                                    : 1 920 pixels\nHeight                                   : 1 040 pixels\nDisplay aspect ratio                     : 1.85:1\nFrame rate mode                          : Constant\nFrame rate                               : 23.976 (24000/1001) FPS\nColor space                              : YUV\nChroma subsampling                       : 4:2:0\nBit depth                                : 8 bits\nScan type                                : Progressive\nBits/(Pixel*Frame)                       : 0.073\nStream size                              : 2.31 GiB (88%)\nWriting library                          : x264 core 157 r2935 545de2f\nEncoding settings                        : cabac=1 / ref=2 / deblock=1:0:0 / analyse=0x1:0x111 / me=hex / subme=6 / psy=1 / psy_rd=1.00:0.00 / mixed_ref=1 / me_range=16 / chroma_me=1 / trellis=1 / 8x8dct=0 / cqm=0 / deadzone=21,11 / fast_pskip=1 / chroma_qp_offset=-2 / threads=18 / lookahead_threads=3 / sliced_threads=0 / nr=0 / decimate=1 / interlaced=0 / bluray_compat=0 / constrained_intra=0 / bframes=3 / b_pyramid=2 / b_adapt=1 / b_bias=0 / direct=1 / weightb=1 / open_gop=0 / weightp=1 / keyint=240 / keyint_min=24 / scenecut=40 / intra_refresh=0 / rc_lookahead=30 / rc=abr / mbtree=1 / bitrate=3500 / ratetol=1.0 / qcomp=0.60 / qpmin=0 / qpmax=69 / qpstep=4 / vbv_maxrate=50000 / vbv_bufsize=62500 / nal_hrd=none / filler=0 / ip_ratio=1.40 / aq=1:1.00\nDefault                                  : Yes\nForced                                   : No\nColor range                              : Limited\nColor primaries                          : BT.709\nTransfer characteristics                 : BT.709\nMatrix coefficients                      : BT.709\n\nAudio #1\nID                                       : 2\nFormat                                   : AC-3\nFormat/Info                              : Audio Coding 3\nCommercial name                          : Dolby Digital\nCodec ID                                 : A_AC3\nDuration                                 : 1 h 37 min\nBit rate mode                            : Constant\nBit rate                                 : 192 kb/s\nChannel(s)                               : 2 channels\nChannel layout                           : L R\nSampling rate                            : 48.0 kHz\nFrame rate                               : 31.250 FPS (1536 SPF)\nCompression mode                         : Lossy\nStream size                              : 134 MiB (5%)\nTitle                                    : Stereo\nLanguage                                 : Italian\nService kind                             : Complete Main\nDefault                                  : Yes\nForced                                   : No\n\nAudio #2\nID                                       : 3\nFormat                                   : AC-3\nFormat/Info                              : Audio Coding 3\nCommercial name                          : Dolby Digital\nCodec ID                                 : A_AC3\nDuration                                 : 1 h 37 min\nBit rate mode                            : Constant\nBit rate                                 : 192 kb/s\nChannel(s)                               : 2 channels\nChannel layout                           : L R\nSampling rate                            : 48.0 kHz\nFrame rate                               : 31.250 FPS (1536 SPF)\nCompression mode                         : Lossy\nStream size                              : 134 MiB (5%)\nTitle                                    : Stereo\nLanguage                                 : English\nService kind                             : Complete Main\nDefault                                  : No\nForced                                   : No",
			"magnet": "magnet:?xt=urn:btih:20c0b822477e5f9815aedaeb14b032dde9f95c05&dn=Omen+IV-Presagio+infernale-Omen+IV-The+Awakening+%281992%29+ITA-ENG+Ac3+2.0+WebRip+1080p+H264+%5BArMor%5D&tr=udp%3A%2F%2Ftracker.coppersurfer.tk%3A6969%2Fannounce",
			"ed2k": "",
			"torrent_file": "data/users/132WK9HBD4ACemXq8TQLspwhh5L9GKfKVQ/",
			"added": 1634293628
		}
	],
	"topic_vote": {
		"16108_1Y7bUwSNLFn6pLdzGyqWkMu2bieAdYsba": 1
	},
	"next_comment_id": 5,
	"comment": {
		"81313_1Y7bUwSNLFn6pLdzGyqWkMu2bieAdYsba": [
			{
				"comment_id": 1,
				"body": "Ciao, qualcuno potrebbe rimettersi in seed?\nCi sono 11 peer fermi al 98.8% da quasi un anno.",
				"image": "data/users/132WK9HBD4ACemXq8TQLspwhh5L9GKfKVQ/",
				"added": 1600068430
			}
		],
		"14850_1Y7bUwSNLFn6pLdzGyqWkMu2bieAdYsba": [
			{
				"comment_id": 2,
				"body": "Ciao, qualcuno potrebbe rimettersi in seed?\nCi sono 5 peers fermi al 97.7% da 9 mesi.",
				"image": "data/users/132WK9HBD4ACemXq8TQLspwhh5L9GKfKVQ/",
				"added": 1628671058
			}
		],
		"16108_1Y7bUwSNLFn6pLdzGyqWkMu2bieAdYsba": [
			{
				"comment_id": 3,
				"body": "Ciao, qualcuno potrebbe tornare in seed?\nSiamo fermi al 86.7%.",
				"image": "data/users/132WK9HBD4ACemXq8TQLspwhh5L9GKfKVQ/",
				"added": 1629712087
			}
		],
		"135097_1Y7bUwSNLFn6pLdzGyqWkMu2bieAdYsba": [
			{
				"comment_id": 4,
				"body": "Ciao, qualcuno che ha ancora i film di Omen caricati da ArMor potrebbe tornare in seed?",
				"image": "data/users/132WK9HBD4ACemXq8TQLspwhh5L9GKfKVQ/",
				"added": 1634294712
			}
		]
	},
	"comment_vote": {}
}